HIERARCHY
ROOT Hips
{
	OFFSET 0.000000 0.000000 0.000000
	CHANNELS 6 Xposition Yposition Zposition Zrotation Yrotation Xrotation 
	JOINT LHipJoint
	{
		OFFSET 0.000000 0.000000 0.000000
		CHANNELS 3 Zrotation Yrotation Xrotation
		JOINT LeftUpLeg
		{
			OFFSET 1.363060 -1.794630 0.839290
			CHANNELS 3 Zrotation Yrotation Xrotation
			JOINT LeftLeg
			{
				OFFSET 2.448110 -6.726130 0.000000
				CHANNELS 3 Zrotation Yrotation Xrotation
				JOINT LeftFoot
				{
					OFFSET 2.562200 -7.039590 0.000000
					CHANNELS 3 Zrotation Yrotation Xrotation
					JOINT LeftToeBase
					{
						OFFSET 0.157640 -0.433110 2.322550
						CHANNELS 3 Zrotation Yrotation Xrotation
						End Site
						{
							OFFSET 0.000000 0.000000 0.000000
						}
					}
				}
			}
		}
	}
	JOINT RHipJoint
	{
		OFFSET 0.000000 0.000000 0.000000
		CHANNELS 3 Zrotation Yrotation Xrotation
		JOINT RightUpLeg
		{
			OFFSET -1.305520 -1.794630 0.839290
			CHANNELS 3 Zrotation Yrotation Xrotation
			JOINT RightLeg
			{
				OFFSET -2.542530 -6.985550 0.000000
				CHANNELS 3 Zrotation Yrotation Xrotation
				JOINT RightFoot
				{
					OFFSET -2.568260 -7.056230 0.000000
					CHANNELS 3 Zrotation Yrotation Xrotation
					JOINT RightToeBase
					{
						OFFSET -0.164730 -0.452590 2.363150
						CHANNELS 3 Zrotation Yrotation Xrotation
						End Site
						{
							OFFSET 0.000000 0.000000 0.000000
						}
					}
				}
			}
		}
	}
	JOINT LowerBack
	{
		OFFSET 0.000000 0.000000 0.000000
		CHANNELS 3 Zrotation Yrotation Xrotation
		JOINT Spine
		{
			OFFSET 0.028270 2.035590 -0.193380
			CHANNELS 3 Zrotation Yrotation Xrotation
			JOINT Spine1
			{
				OFFSET 0.056720 2.048850 -0.042750
				CHANNELS 3 Zrotation Yrotation Xrotation
				JOINT Neck
				{
					OFFSET 0.000000 0.000000 0.000000
					CHANNELS 3 Zrotation Yrotation Xrotation
					JOINT Neck1
					{
						OFFSET -0.054170 1.746240 0.172020
						CHANNELS 3 Zrotation Yrotation Xrotation
						JOINT Head
						{
							OFFSET 0.104070 1.761360 -0.123970
							CHANNELS 3 Zrotation Yrotation Xrotation
							End Site
							{
								OFFSET 0.000000 0.000000 0.000000
							}
						}
					}
				}
				JOINT LeftShoulder
				{
					OFFSET 0.000000 0.000000 0.000000
					CHANNELS 3 Zrotation Yrotation Xrotation
					JOINT LeftArm
					{
						OFFSET 3.362410 1.200890 -0.311210
						CHANNELS 3 Zrotation Yrotation Xrotation
						JOINT LeftForeArm
						{
							OFFSET 4.983000 -0.000000 -0.000000
							CHANNELS 3 Zrotation Yrotation Xrotation
							JOINT LeftHand
							{
								OFFSET 3.483560 -0.000000 -0.000000
								CHANNELS 3 Zrotation Yrotation Xrotation
								JOINT LeftFingerBase
								{
									OFFSET 0.000000 0.000000 0.000000
									CHANNELS 3 Zrotation Yrotation Xrotation
									JOINT LeftHandIndex1
									{
										OFFSET 0.715260 -0.000000 -0.000000
										CHANNELS 3 Zrotation Yrotation Xrotation
										End Site
										{
											OFFSET 0.000000 0.000000 0.000000
										}
									}
								}
								JOINT LThumb
								{
									OFFSET 0.000000 0.000000 0.000000
									CHANNELS 3 Zrotation Yrotation Xrotation
									End Site
									{
										OFFSET 0.000000 0.000000 0.000000
									}
								}
							}
						}
					}
				}
				JOINT RightShoulder
				{
					OFFSET 0.000000 0.000000 0.000000
					CHANNELS 3 Zrotation Yrotation Xrotation
					JOINT RightArm
					{
						OFFSET -3.136600 1.374050 -0.404650
						CHANNELS 3 Zrotation Yrotation Xrotation
						JOINT RightForeArm
						{
							OFFSET -5.241900 -0.000000 -0.000000
							CHANNELS 3 Zrotation Yrotation Xrotation
							JOINT RightHand
							{
								OFFSET -3.444170 -0.000000 -0.000000
								CHANNELS 3 Zrotation Yrotation Xrotation
								JOINT RightFingerBase
								{
									OFFSET 0.000000 0.000000 0.000000
									CHANNELS 3 Zrotation Yrotation Xrotation
									JOINT RightHandIndex1
									{
										OFFSET -0.622530 -0.000000 -0.000000
										CHANNELS 3 Zrotation Yrotation Xrotation
										End Site
										{
											OFFSET 0.000000 0.000000 0.000000
										}
									}
								}
								JOINT RThumb
								{
									OFFSET 0.000000 0.000000 0.000000
									CHANNELS 3 Zrotation Yrotation Xrotation
									End Site
									{
										OFFSET 0.000000 0.000000 0.000000
									}
								}
							}
						}
					}
				}
			}
		}
	}
}
MOTION
Frames: 5
Frame Time: 0.016667
-1.190287 16.943734 24.213811 1.598037 -2.713855 5.312307 8.756920 16.620546 -17.261461 -41.173644 9.795036 10.771078 -2.636771 -5.810077 -22.534186 -0.959423 14.301040 33.039883 0.000000 0.000000 0.000000 -15.998133 -25.469198 5.212862 32.901527 9.375098 8.651581 5.084155 -4.699531 37.388390 15.285480 -24.603715 19.640723 0.000000 0.000000 0.000000 8.424024 5.108717 21.753447 -4.230352 2.862101 6.775337 2.490923 1.935345 -3.954244 6.326640 -0.641662 29.902069 -4.406019 0.076487 -10.553151 0.000000 0.000000 0.000000 18.648843 28.168617 -4.719195 -68.929675 -16.210101 5.075899 -75.164424 6.144096 -0.552048 -2.602971 -8.926593 -0.276794 -2.574780 -8.936813 0.000000 0.000000 0.000000 0.000000 0.000000 0.000000 0.000000 -22.368046 -27.371487 -4.265171 71.867082 12.835715 21.619824 11.152054 83.286269 0.449861 0.919779 8.919591 0.224866 0.934746 8.924098 0.000000 0.000000 0.000000 0.000000 0.000000 0.000000 0.000000 
-1.196018 16.976152 24.410384 2.130413 -2.776581 5.431609 8.851760 16.824577 -17.251355 -41.413427 9.713148 10.726137 -3.288005 -5.326234 -20.706554 -1.211607 13.230854 30.316630 0.000000 0.000000 0.000000 -15.224264 -25.245067 5.541646 31.632194 9.616853 7.875511 4.665650 -4.570227 37.648155 15.671231 -26.123077 20.632003 0.000000 0.000000 0.000000 8.068514 5.069838 21.587379 -4.345907 2.682805 6.902442 2.262786 1.783578 -4.231738 6.159763 -0.614780 30.041290 -4.176232 0.102189 -10.423744 0.000000 0.000000 0.000000 18.566546 28.268119 -4.705419 -68.917455 -16.241348 5.365146 -75.233426 5.524617 -0.559253 -2.711815 -9.223447 -0.280461 -2.681987 -9.233860 -0.000000 0.000000 0.000000 0.000000 0.000000 0.000000 0.000000 -22.358906 -27.774506 -4.231951 71.939208 12.032228 22.741580 13.526368 82.742698 0.478049 1.258020 9.685184 0.238784 1.273665 9.690133 0.000000 0.000000 0.000000 0.000000 0.000000 0.000000 0.000000 
-1.201069 17.006824 24.606671 2.631820 -2.814146 5.635037 8.860670 17.176927 -17.132652 -41.695193 9.469783 10.529533 -3.810063 -4.881696 -18.851848 -1.423220 12.117679 27.684862 0.000000 0.000000 0.000000 -14.410229 -25.106196 5.938955 30.294616 9.924158 6.968795 4.343176 -4.450821 37.884873 15.973233 -27.557672 21.591399 0.000000 0.000000 0.000000 7.721194 5.005791 21.335339 -4.430955 2.490030 7.047801 1.960035 1.632154 -4.573944 5.991157 -0.586607 30.123414 -3.877787 0.132392 -10.189410 0.000000 0.000000 0.000000 18.400038 28.361513 -4.730487 -68.844869 -16.303741 5.718728 -75.271719 5.010794 -0.570342 -2.893286 -9.661615 -0.286096 -2.861237 -9.672274 -0.000000 0.000000 0.000000 0.000000 0.000000 0.000000 0.000000 -22.337639 -28.175499 -4.149923 71.967526 11.142253 23.923735 16.025337 82.127359 0.512008 1.666149 10.630454 0.255537 1.682996 10.635923 0.000000 0.000000 0.000000 0.000000 0.000000 0.000000 0.000000 
-1.208541 17.035165 24.803828 3.115230 -2.732270 5.951341 8.836341 17.850627 -16.815412 -42.169179 8.997371 10.168895 -4.158780 -4.559475 -16.961598 -1.593737 10.926922 25.313064 0.000000 0.000000 0.000000 -13.531741 -25.119687 6.464802 28.857256 10.329293 5.846271 4.133780 -4.362979 38.109856 16.218583 -28.903627 22.477942 0.000000 0.000000 0.000000 7.313499 4.897498 20.875357 -4.462991 2.277308 7.164942 1.707891 1.461140 -4.824515 5.836541 -0.560001 30.198359 -3.584631 0.160989 -9.973750 0.000000 0.000000 0.000000 18.291252 28.458404 -4.716694 -68.743750 -16.327543 6.077919 -75.376962 4.362079 -0.579701 -3.082282 -10.099135 -0.290874 -3.048025 -10.110012 -0.000000 0.000000 0.000000 0.000000 0.000000 0.000000 0.000000 -22.333085 -28.538415 -4.023193 71.956655 10.274063 25.038355 18.654055 81.358383 0.548123 2.131277 11.663066 0.273347 2.150074 11.668994 0.000000 0.000000 0.000000 0.000000 0.000000 0.000000 0.000000 
-1.218090 17.060629 25.001956 3.587221 -2.520453 6.381016 8.787101 18.852151 -16.288549 -42.851704 8.294591 9.661092 -4.317944 -4.375115 -15.041841 -1.730145 9.652889 23.205541 0.000000 0.000000 0.000000 -12.588144 -25.283776 7.111361 27.313865 10.820645 4.501802 4.038641 -4.313604 38.322394 16.414284 -30.159589 23.289127 0.000000 0.000000 0.000000 6.838726 4.739561 20.205244 -4.438624 2.040206 7.253165 1.507076 1.266764 -4.976730 5.696168 -0.534921 30.263656 -3.295403 0.188227 -9.776515 0.000000 0.000000 0.000000 18.245147 28.561668 -4.662306 -68.618429 -16.310762 6.443998 -75.547312 3.569149 -0.587162 -3.278591 -10.533216 -0.294710 -3.242187 -10.544275 -0.000000 0.000000 0.000000 0.000000 0.000000 0.000000 0.000000 -22.348910 -28.865127 -3.847265 71.912341 9.443048 26.061010 21.453870 80.389875 0.587174 2.659206 12.787686 0.292633 2.681182 12.793881 0.000000 0.000000 0.000000 0.000000 0.000000 0.000000 0.000000 
